<svg width="35" height="40" viewBox="0 0 35 40" fill="none" xmlns="http://www.w3.org/2000/svg">
<path d="M17.3212 40L-0.00012207 30.0003V10.0004L17.3212 0L34.6418 10.0004V30.0003L34.4668 30.1011L17.3212 40ZM9.74129 34.8161L17.3212 39.1925L24.9003 34.8161V22.5129C24.9003 18.7243 18.3778 15.4711 17.3212 14.9701C16.2645 15.4718 9.74129 18.7243 9.74129 22.5129V34.8161ZM25.6001 22.5129V34.4124L29.5223 32.1479V7.85207L17.3212 0.807524L5.11867 7.85277V32.1479L9.04084 34.4124V12.9576C9.04084 8.40419 16.8453 4.85777 17.1777 4.70872L17.3204 4.64505L17.4632 4.70872C17.7956 4.85777 25.5994 8.40419 25.5994 12.9576L25.6001 22.5129ZM30.2228 8.25653V31.7435L33.9427 29.5959V10.4041L30.2228 8.25653ZM0.699644 29.5959L4.4189 31.7435V8.25653L0.699644 10.4041V29.5959ZM17.3212 9.8464C16.2645 10.3481 9.74129 13.6006 9.74129 17.3899V20.1127C11.6649 16.7678 16.9069 14.3858 17.1784 14.2647L17.3212 14.201L17.4639 14.2647C17.7354 14.3858 22.9774 16.7678 24.9003 20.1127V17.3899C24.9003 13.6006 18.3778 10.3474 17.3212 9.8464ZM17.3212 5.41409C16.2645 5.91582 9.74129 9.16833 9.74129 12.9576V14.9897C11.6649 11.6448 16.9069 9.26209 17.1784 9.14103L17.3212 9.07736L17.4639 9.14103C17.7354 9.26209 22.9774 11.6441 24.9003 14.9897V12.9576C24.9003 9.16833 18.3778 5.91582 17.3212 5.41409Z" fill="#B7B7B7"/>
</svg>
