<svg width="130" height="52" viewBox="0 0 130 52" fill="none" xmlns="http://www.w3.org/2000/svg">
<path d="M40.369 48.7677C39.8297 48.7677 39.3404 48.6662 38.9009 48.463C38.4614 48.2562 38.1124 47.9589 37.8539 47.5711C37.5953 47.1796 37.4661 46.7069 37.4661 46.1529C37.4661 45.6654 37.5621 45.2702 37.7541 44.9674C37.9462 44.6608 38.2029 44.4208 38.5242 44.2472C38.8455 44.0736 39.2 43.9443 39.5878 43.8594C39.9793 43.7708 40.3726 43.7006 40.7678 43.6489C41.2849 43.5824 41.7041 43.5325 42.0254 43.4993C42.3504 43.4624 42.5868 43.4014 42.7345 43.3165C42.8859 43.2315 42.9616 43.0838 42.9616 42.8733V42.829C42.9616 42.2824 42.812 41.8577 42.5129 41.5548C42.2174 41.252 41.7687 41.1005 41.1667 41.1005C40.5425 41.1005 40.0532 41.2372 39.6986 41.5105C39.3441 41.7838 39.0948 42.0756 38.9508 42.3858L37.7098 41.9426C37.9314 41.4255 38.2269 41.023 38.5962 40.7349C38.9692 40.4431 39.3755 40.24 39.815 40.1255C40.2582 40.0073 40.694 39.9482 41.1224 39.9482C41.3957 39.9482 41.7096 39.9815 42.0642 40.048C42.4224 40.1107 42.7677 40.2419 43.1001 40.4413C43.4362 40.6407 43.715 40.9417 43.9366 41.3443C44.1582 41.7469 44.269 42.2861 44.269 42.9619V48.5683H42.9616V47.416H42.8951C42.8065 47.6007 42.6588 47.7982 42.452 48.0088C42.2451 48.2193 41.97 48.3984 41.6265 48.5461C41.283 48.6939 40.8639 48.7677 40.369 48.7677ZM40.5684 47.5933C41.0854 47.5933 41.5212 47.4917 41.8758 47.2886C42.234 47.0854 42.5037 46.8232 42.6846 46.5019C42.8693 46.1806 42.9616 45.8427 42.9616 45.4881V44.2915C42.9062 44.358 42.7843 44.4189 42.596 44.4743C42.4113 44.526 42.1971 44.5722 41.9534 44.6128C41.7133 44.6497 41.4788 44.683 41.2498 44.7125C41.0245 44.7384 40.8417 44.7605 40.7014 44.779C40.3616 44.8233 40.044 44.8953 39.7485 44.9951C39.4567 45.0911 39.2204 45.237 39.0394 45.4327C38.8621 45.6248 38.7735 45.887 38.7735 46.2194C38.7735 46.6736 38.9415 47.0171 39.2776 47.2498C39.6174 47.4788 40.0476 47.5933 40.5684 47.5933Z" fill="#EEEEEE"/>
<path d="M18.9617 48.7456C18.1418 48.7456 17.4345 48.5646 16.8399 48.2027C16.249 47.837 15.7929 47.3273 15.4715 46.6736C15.1539 46.0162 14.9951 45.2517 14.9951 44.3801C14.9951 43.5085 15.1539 42.7403 15.4715 42.0756C15.7929 41.4071 16.2397 40.8863 16.8122 40.5133C17.3883 40.1366 18.0605 39.9482 18.8287 39.9482C19.2719 39.9482 19.7095 40.0221 20.1417 40.1698C20.5738 40.3176 20.9671 40.5576 21.3216 40.89C21.6762 41.2187 21.9587 41.6545 22.1692 42.1974C22.3798 42.7403 22.485 43.4088 22.485 44.2029V44.7569H15.9258V43.6267H21.1555C21.1555 43.1466 21.0594 42.7182 20.8674 42.3415C20.679 41.9648 20.4094 41.6674 20.0586 41.4495C19.7114 41.2316 19.3014 41.1227 18.8287 41.1227C18.308 41.1227 17.8574 41.252 17.477 41.5105C17.1003 41.7653 16.8103 42.0977 16.6072 42.5077C16.4041 42.9176 16.3025 43.3571 16.3025 43.8262V44.5796C16.3025 45.2222 16.4133 45.767 16.6349 46.2138C16.8602 46.657 17.1723 46.995 17.5712 47.2276C17.97 47.4566 18.4335 47.5711 18.9617 47.5711C19.3051 47.5711 19.6154 47.5231 19.8924 47.4271C20.1731 47.3274 20.415 47.1796 20.6181 46.9839C20.8212 46.7844 20.9782 46.537 21.089 46.2415L22.3521 46.5961C22.2191 47.0245 21.9957 47.4012 21.6817 47.7262C21.3678 48.0475 20.98 48.2987 20.5184 48.4796C20.0567 48.6569 19.5378 48.7456 18.9617 48.7456Z" fill="#EEEEEE"/>
<path d="M27.6869 48.7455C26.9778 48.7455 26.3518 48.5663 25.8089 48.2081C25.266 47.8462 24.8413 47.3365 24.5348 46.6791C24.2282 46.018 24.075 45.2369 24.075 44.3357C24.075 43.442 24.2282 42.6664 24.5348 42.009C24.8413 41.3516 25.2679 40.8438 25.8145 40.4855C26.3611 40.1273 26.9926 39.9482 27.7091 39.9482C28.2631 39.9482 28.7007 40.0405 29.0221 40.2251C29.3471 40.4061 29.5945 40.6129 29.7644 40.8456C29.938 41.0746 30.0728 41.2629 30.1688 41.4107H30.2796V37.2225H31.587V48.5682H30.3239V47.2608H30.1688C30.0728 47.4159 29.9361 47.6116 29.7589 47.848C29.5816 48.0807 29.3286 48.2893 28.9999 48.474C28.6712 48.655 28.2335 48.7455 27.6869 48.7455ZM27.8642 47.571C28.3887 47.571 28.8319 47.4344 29.1938 47.1611C29.5557 46.8841 29.8309 46.5018 30.0192 46.0143C30.2076 45.5231 30.3018 44.9562 30.3018 44.3136C30.3018 43.6783 30.2094 43.1225 30.0248 42.6461C29.8401 42.1659 29.5668 41.7929 29.2049 41.527C28.8429 41.2574 28.3961 41.1226 27.8642 41.1226C27.3102 41.1226 26.8486 41.2648 26.4793 41.5492C26.1136 41.8299 25.8385 42.2121 25.6538 42.6959C25.4728 43.176 25.3824 43.7153 25.3824 44.3136C25.3824 44.9193 25.4747 45.4696 25.6594 45.9644C25.8477 46.4557 26.1247 46.8471 26.4903 47.1389C26.8597 47.427 27.3176 47.571 27.8642 47.571Z" fill="#EEEEEE"/>
<path d="M1.69238 37.2225H3.33218L7.18793 46.6403H7.32089L11.1766 37.2225H12.8164V48.5682H11.5312V39.9482H11.4204L7.87488 48.5682H6.63395L3.08843 39.9482H2.97763V48.5682H1.69238V37.2225Z" fill="#EEEEEE"/>
<path d="M34.1629 48.5682V40.059H35.4703V48.5682H34.1629ZM34.8277 38.6408C34.5728 38.6408 34.3531 38.554 34.1684 38.3804C33.9875 38.2068 33.897 37.9982 33.897 37.7544C33.897 37.5107 33.9875 37.302 34.1684 37.1284C34.3531 36.9548 34.5728 36.868 34.8277 36.868C35.0825 36.868 35.3004 36.9548 35.4814 37.1284C35.666 37.302 35.7584 37.5107 35.7584 37.7544C35.7584 37.9982 35.666 38.2068 35.4814 38.3804C35.3004 38.554 35.0825 38.6408 34.8277 38.6408Z" fill="#EEEEEE"/>
<path d="M119.773 2.74254C119.773 2.74254 115.223 12.401 105.437 22.8851C102.85 25.5726 101.584 26.7466 99.823 28.1775C97.429 30.1221 94.4847 33.0664 89.284 33.1214H2.10059V34.3597H97.5391C97.5391 34.3597 102.731 28.6361 109.234 21.0781C115.737 13.5017 129.963 0 129.963 0L119.773 2.74254Z" fill="#E20613"/>
<path d="M119.379 34.0479H119.406L118.397 32.9197L116.287 30.5715L115.93 30.1404L115.049 29.159L114.921 29.0122L100.639 13.144H96.0715L101.905 19.6748H101.887L102.19 20.005H102.18L108.023 26.5265H108.005L113.783 32.9655L113.994 33.2224H114.013L114.756 34.0479L115.003 34.3506H119.654L119.379 34.0479Z" fill="#E20613"/>
<path d="M89.0271 30.0579V13.144H92.5309V30.0487H89.0271V30.0579Z" fill="white"/>
<path d="M59.4187 30.2872C55.6947 30.2872 53.1907 28.2968 53.1907 25.3433C53.1907 22.133 55.603 20.4269 60.1708 20.4269H64.9955V19.8674C64.9955 17.2257 63.3445 15.7673 60.3359 15.7673C58.4281 15.7673 56.4744 16.3727 55.1169 17.3542L53.8052 14.9051C55.5388 13.6669 58.0795 12.9514 60.8313 12.9514C65.9219 12.9514 68.4994 15.3546 68.4994 20.0967V30.0579H65.2248V27.2145L64.6745 28.0583C63.7297 29.5167 61.9136 30.2872 59.4187 30.2872ZM60.4735 22.5457C57.9236 22.5457 56.6303 23.4263 56.6303 25.1782C56.6303 26.8567 58.0245 27.9024 60.2717 27.9024C62.519 27.9024 64.2801 26.8109 64.9772 24.9856L64.9955 24.9305V22.5457H60.4735Z" fill="white"/>
<path d="M32.4887 30.2872C26.8843 30.2872 23.1145 26.8017 23.1145 21.601C23.1145 16.5837 26.7926 12.9514 31.8649 12.9514C36.9006 12.9514 40.4228 16.547 40.4228 21.7019C40.4228 21.9495 40.4044 22.2981 40.3769 22.6191H26.5541L26.6183 22.9768C27.1412 25.7194 29.4343 27.4162 32.5804 27.4162C34.4974 27.4162 36.0475 26.8384 37.3133 25.6551L39.1295 27.7465C37.6252 29.4066 35.3321 30.2872 32.4887 30.2872ZM31.8649 15.6297C29.0765 15.6297 27.0036 17.4 26.5817 20.1426L26.5266 20.4911H37.1482L37.1024 20.1517C36.763 17.4459 34.6533 15.6297 31.8649 15.6297Z" fill="white"/>
<path d="M74.3604 30.0579V13.1441H77.6624V16.4186L78.2127 15.5564C79.3318 13.8136 82.3495 12.9973 84.9453 12.9423V16.1893C84.7068 16.1618 84.4958 16.1434 84.294 16.1434C81.1938 16.1434 77.855 17.932 77.855 21.8578V30.0487H74.3604V30.0579Z" fill="white"/>
<path d="M2.10059 30.0579V7.70483H10.4383C15.6207 7.70483 18.6017 9.76862 18.6017 13.3734C18.6017 15.4922 17.6111 17.1891 15.8041 18.1613L15.1804 18.4915L15.85 18.7025C18.3815 19.5097 19.7757 21.4359 19.7757 24.1234C19.7757 27.9483 16.6938 30.0579 11.0895 30.0579H2.10059ZM5.76036 27.3154H10.8327C14.3182 27.3154 16.0793 26.0954 16.0793 23.7014C16.0793 21.3075 14.309 20.0875 10.8327 20.0875H5.76036V27.3154ZM5.76036 17.3725H9.97965C13.1533 17.3725 14.9052 16.1434 14.9052 13.9237C14.9052 11.6765 13.1533 10.4474 9.97965 10.4474H5.76036V17.3725Z" fill="white"/>
<path d="M48.4576 6.32898H44.9629V30.0579H48.4576V6.32898Z" fill="white"/>
<path d="M90.7974 6.92515C89.4766 6.92515 88.4768 5.99874 88.4768 4.76964C88.4768 3.54054 89.4766 2.61414 90.7974 2.61414C92.1182 2.61414 93.118 3.50386 93.118 4.67792C93.118 5.9804 92.1458 6.92515 90.7974 6.92515Z" fill="#FF0000"/>
</svg>
