<svg width="40" height="40" viewBox="0 0 40 40" fill="none" xmlns="http://www.w3.org/2000/svg">
<path d="M20 40L13.5064 33.5064L13.5188 33.4932L10.0413 30.0157L10.3002 29.7569C15.6488 24.4097 24.3513 24.4083 29.6992 29.7569L29.958 30.0157L26.4805 33.4932L26.4936 33.5064L20 40ZM14.56 33.4998L20 38.9398L25.44 33.4998C23.9484 32.1405 22.0312 31.3962 20 31.3962C17.9681 31.3969 16.0516 32.1405 14.56 33.4998ZM20 30.6657C22.2265 30.6657 24.3279 31.4854 25.9577 32.9829L28.9204 30.0201C23.9265 25.2974 16.0721 25.2974 11.0796 30.0201L14.0423 32.9829C15.6722 31.4854 17.7728 30.6657 20 30.6657ZM9.98354 29.958L6.50606 26.4805L6.49365 26.4936L0 20L6.49365 13.5064L6.50606 13.5196L9.98354 10.0421L10.2424 10.3002C15.591 15.6487 15.591 24.3513 10.2424 29.6991L9.98354 29.958ZM7.01714 25.9577L9.97988 28.9204C14.7033 23.9272 14.7033 16.0728 9.97988 11.0796L7.01714 14.0423C10.1005 17.4036 10.1005 22.5957 7.01714 25.9577ZM1.05951 20L6.4995 25.44C9.29846 22.3646 9.29846 17.6346 6.4995 14.5593L1.05951 20ZM30.0165 29.958L29.7584 29.6999C27.1671 27.1093 25.7405 23.6647 25.7405 20C25.7405 16.3353 27.1671 12.8907 29.7584 10.3002L30.0165 10.0421L33.494 13.5196L33.5071 13.5064L40 20L33.5071 26.4936L33.494 26.4805L30.0165 29.958ZM30.0201 11.0789C27.7286 13.4998 26.471 16.6527 26.471 19.9993C26.471 23.3459 27.7286 26.4995 30.0201 28.9197L32.9829 25.9569C29.8987 22.595 29.8987 17.4028 32.9829 14.0409L30.0201 11.0789ZM33.5005 14.5593C32.1413 16.0509 31.3969 17.9681 31.3969 19.9993C31.3969 22.0305 32.1413 23.9476 33.5005 25.4393L38.9405 19.9993L33.5005 14.5593ZM20 14.2595C16.3353 14.2595 12.8908 12.833 10.3002 10.2417L10.0413 9.98354L13.5188 6.50606L13.5064 6.49363L20 0L26.4936 6.49363L26.4805 6.50606L29.958 9.98354L29.6992 10.2417C27.1086 12.833 23.664 14.2595 20 14.2595ZM11.0796 9.97917C13.5005 12.2707 16.6534 13.5283 20 13.5283C23.3459 13.5283 26.5002 12.2707 28.9204 9.97917L25.9577 7.01642C24.3279 8.51388 22.2257 9.33354 20 9.33354C17.7728 9.33354 15.6722 8.51388 14.0423 7.01642L11.0796 9.97917ZM14.56 6.49948C16.0516 7.85874 17.9681 8.60307 20 8.60307C22.0312 8.60307 23.9484 7.85874 25.44 6.49948L20 1.05949L14.56 6.49948Z" fill="#B7B7B7"/>
</svg>
