<svg width="40" height="40" viewBox="0 0 40 40" fill="none" xmlns="http://www.w3.org/2000/svg">
<path d="M19.9989 40C17.4954 40 15.2793 37.4308 14.3826 33.5497C11.0892 35.5918 7.65534 35.9405 5.85742 34.1418C4.08713 32.3723 4.33651 28.9885 6.44727 25.6099C2.67523 24.7251 0 22.5434 0 19.9996C0 17.4954 2.56921 15.2801 6.44952 14.3834C4.40745 11.0907 4.05876 7.65684 5.85742 5.85743C7.62847 4.08713 11.0115 4.33652 14.3893 6.44728C15.2741 2.67524 17.4558 0 19.9996 0C22.5031 0 24.7192 2.5692 25.6159 6.44952C28.9086 4.40819 32.3424 4.05801 34.1411 5.85743C35.9114 7.62847 35.662 11.0115 33.552 14.3893C37.324 15.2741 39.9992 17.4558 39.9992 19.9996C39.9992 22.5024 37.43 24.7192 33.5497 25.6159C35.5911 28.9086 35.9405 32.3432 34.1418 34.1418C32.3708 35.9121 28.9877 35.6627 25.6099 33.5527C24.7244 37.3248 22.5427 40 19.9989 40ZM15.0501 33.1114C15.8266 36.7954 17.7978 39.2534 19.9989 39.2534C22.9123 39.2534 25.2829 35.0184 25.2829 29.8135C25.2829 25.1216 23.3565 21.2181 20.8433 20.4939C22.3336 23.0728 20.9113 27.6161 17.3236 31.2038C16.5972 31.9303 15.8311 32.5686 15.0501 33.1114ZM25.7704 32.7702C28.925 34.8272 32.0557 35.1714 33.6124 33.6139C34.5823 32.6433 34.831 31.0455 34.3128 29.1139C33.7745 27.1099 32.482 25.0111 30.6744 23.2027C27.3571 19.8854 23.2356 18.4862 20.9456 19.7525C23.8232 20.5215 26.0295 24.7408 26.0295 29.8143C26.0295 30.8424 25.9392 31.8347 25.7704 32.7702ZM7.22827 25.7719C5.17201 28.9265 4.8278 32.0572 6.38456 33.6139C7.35445 34.5846 8.95301 34.8332 10.8846 34.3143C12.8886 33.776 14.9881 32.4835 16.7958 30.6759C20.1131 27.3586 21.5116 23.2363 20.2468 20.9471C19.4777 23.8247 15.2584 26.031 10.1857 26.031C9.1576 26.031 8.16456 25.9407 7.22827 25.7719ZM6.8878 15.0516C3.20311 15.8281 0.745898 17.7985 0.745898 20.0004C0.745898 22.9138 4.98087 25.2844 10.1857 25.2844C14.8776 25.2844 18.7811 23.3588 19.5053 20.8448C16.9264 22.3366 12.3831 20.9143 8.79548 17.3259C8.06824 16.5987 7.43061 15.8333 6.8878 15.0516ZM22.9003 18.5706C25.4106 18.5706 28.5644 20.0377 31.2023 22.6749C31.9295 23.4021 32.5671 24.1674 33.11 24.9491C36.7946 24.1726 39.2519 22.2015 39.2519 20.0004C39.2519 17.087 35.0169 14.7164 29.812 14.7164C25.1201 14.7164 21.2167 16.642 20.4924 19.1559C21.1756 18.7609 21.9961 18.5706 22.9003 18.5706ZM9.05008 5.41691C7.96222 5.41691 7.03563 5.73573 6.38456 6.38606C4.32456 8.4468 5.6424 13.1171 9.32335 16.798C12.6399 20.1154 16.7614 21.5146 19.0521 20.2483C16.1746 19.4792 13.9675 15.2599 13.9675 10.1872C13.9675 9.15983 14.0586 8.1668 14.2266 7.23051C12.3921 6.03364 10.5643 5.41691 9.05008 5.41691ZM19.9989 0.747396C17.0855 0.747396 14.7149 4.98236 14.7149 10.1872C14.7149 14.8761 16.6382 18.7766 19.1492 19.5046C18.4787 18.36 18.366 16.8137 18.8416 15.0419C19.4135 12.9132 20.7739 10.6957 22.6734 8.79622C23.3998 8.06899 24.1666 7.43135 24.9476 6.88854C24.1711 3.2046 22.2 0.747396 19.9989 0.747396ZM30.9641 5.42139C30.3937 5.42139 29.7725 5.50949 29.1132 5.68644C27.1092 6.22477 25.0096 7.51722 23.202 9.32484C21.3944 11.1325 20.1019 13.232 19.5636 15.236C19.1529 16.7659 19.2231 18.0867 19.7517 19.0521C20.5223 16.1753 24.7401 13.9697 29.8128 13.9697C30.8402 13.9697 31.8339 14.0608 32.7695 14.2288C34.8257 11.075 35.1699 7.94355 33.6132 6.3868C32.9741 5.74767 32.0632 5.42139 30.9641 5.42139Z" fill="#B7B7B7"/>
</svg>
