<svg width="35" height="40" viewBox="0 0 35 40" fill="none" xmlns="http://www.w3.org/2000/svg">
<path d="M17.3204 40.0001L0 30.0007V10.0003L0.200839 9.88465L17.3204 0.00012207L34.6416 9.99951V29.9999L34.4408 30.1148L17.3204 40.0001ZM0.803358 29.5364L17.3204 39.073L24.5153 34.9189L0.803358 21.2289V29.5364ZM19.0066 30.8113L25.3178 34.4553L33.8374 29.5364V19.7001L27.5263 16.056V25.8932L19.0066 30.8113ZM7.91791 24.4085L18.2033 30.3478L26.7221 25.4288V15.5925L16.4367 9.65326L7.91791 14.5722V24.4085ZM0.803358 20.301L7.11534 23.945V14.1079L15.6341 9.18973L9.32217 5.54571L0.803358 10.4647V20.301ZM10.1255 5.08137L33.8383 18.7714V10.4639L17.3204 0.92719L10.1255 5.08137Z" fill="#B7B7B7"/>
</svg>
